<svg width="120" height="38" viewBox="0 0 120 38" fill="none" xmlns="http://www.w3.org/2000/svg">
    <g clip-path="url(#clip0_500_42)">
        <path d="M17.1533 0.247139C15.3285 0.726951 7.97079 3.50404 7.60583 3.83846C7.19707 4.24557 7.00729 5.01617 7.19707 5.56868C7.34305 5.99034 8.21897 6.54285 8.75911 6.54285C9.25546 6.54285 18.3941 4.52182 18.8175 4.31827C20.2044 3.64944 20.1898 1.13406 18.7883 0.465236C18.3212 0.2326 17.562 0.130822 17.1533 0.247139Z" fill="white"/>
        <path d="M34.4088 9.95969C33.5621 10.2796 33.0219 10.7303 32.7008 11.3555C32.4088 11.908 32.4088 12.1843 32.438 23.976C32.4818 35.9567 32.4818 36.044 32.7884 36.4511C32.949 36.6692 33.3723 37.0472 33.7081 37.2944C34.2044 37.6434 34.4964 37.7306 35.3285 37.7742C36.9636 37.876 38.1168 37.3089 38.6716 36.1458C38.949 35.5787 38.9781 35.2588 38.9781 32.409C38.9781 30.6934 39.0365 29.0794 39.1241 28.8032C39.2993 28.1634 39.8833 27.3201 40.4234 26.9276L40.8322 26.6222L45.1241 31.4494C47.4745 34.1102 49.6351 36.4947 49.9271 36.771C51.2701 38.0795 53.1679 38.1522 54.7154 36.9745C55.6497 36.2621 56.0292 34.779 55.5475 33.6449C55.4307 33.3396 53.6497 31.3767 51.2701 28.8904C49.0365 26.5495 46.7738 24.1796 46.2336 23.6125L45.2555 22.5656L47.6935 20.3411C49.0511 19.1197 50.876 17.4622 51.7519 16.648C52.6424 15.8192 53.5767 14.9759 53.8395 14.7578C54.9344 13.8418 55.1971 12.4605 54.4672 11.3119C53.9271 10.4686 52.5694 9.74159 51.5475 9.74159C50.219 9.74159 49.6497 10.1632 45.6643 14.0599C40.3796 19.236 39.9417 19.6286 39.5913 19.6286C39.4161 19.6286 39.2117 19.4978 39.1241 19.3524C39.0365 19.1779 38.9781 17.6948 38.9781 15.5575C38.9781 11.7917 38.9344 11.5009 38.1898 10.7303C37.9709 10.5122 37.5913 10.2214 37.3285 10.0905C36.7008 9.75613 35.1095 9.68343 34.4088 9.95969Z" fill="white"/>
        <path d="M1.82484 10.454C1.10951 10.7739 0.496372 11.4573 0.291992 12.1843C0.175204 12.5623 0.146007 15.1504 0.175204 20.5737C0.233598 27.3638 0.277393 28.556 0.481773 29.3412C1.67885 33.8194 5.45988 36.9164 10.6424 37.6579C12.2774 37.9051 15.1971 37.7597 16.6716 37.3816C18.0876 37.0181 19.7664 36.3202 20.6861 35.7241C21.9708 34.8953 23.6643 33.0488 24.3504 31.7402C25.5913 29.3557 25.5913 29.3266 25.6643 20.5155C25.7226 12.0389 25.7226 12.0534 24.8905 11.1519C23.708 9.88698 21.5621 9.82882 20.3504 11.0211C19.4599 11.9225 19.4891 11.5736 19.4161 20.1375C19.3139 29.2685 19.3869 28.8468 17.8978 30.3299C16.6716 31.5512 15.5183 32.0019 13.4453 32.1037C10.9781 32.22 9.09491 31.5948 7.81024 30.2281C6.36498 28.6869 6.27739 28.0326 6.27739 19.2651C6.27739 11.7917 6.29199 11.9516 5.48907 11.0792C4.68615 10.1923 3.02192 9.90152 1.82484 10.454Z" fill="white"/>
        <path d="M70.8029 10.4541C66.4234 11.3991 63.0365 14.0308 61.1971 17.8839C60.3358 19.7013 60.1314 20.6755 60.0438 23.2636C59.927 26.6077 60.438 28.6869 61.9854 31.3331C62.8613 32.8162 64.9343 34.8954 66.4088 35.7677C68.9197 37.2653 71.5037 37.876 74.6716 37.7597C77.7372 37.6434 79.9562 36.9455 82.3504 35.3315C84.8467 33.6449 86.9489 30.5916 87.7372 27.5528C88.1314 26.0552 88.2774 23.1327 88.0438 21.5479C87.2847 16.3426 83.3723 12.068 78.0292 10.5995C76.3504 10.1487 72.5694 10.0615 70.8029 10.4541ZM76.7153 16.1682C79.0803 16.837 80.7883 18.48 81.5475 20.8354C81.8686 21.8387 81.9416 22.3039 81.9416 23.6998C81.9562 24.8339 81.8686 25.6772 81.708 26.3169C80.9489 29.1812 79.0073 31.2168 76.3358 31.9147C75.2847 32.191 72.8467 32.191 71.7518 31.9147C69.7956 31.4058 68.073 30.01 67.1533 28.1925C66.4964 26.9276 66.292 26.0697 66.1898 24.354C65.9562 20.3702 67.9124 17.215 71.2847 16.1391C72.7737 15.6738 75.0219 15.6738 76.7153 16.1682Z" fill="white"/>
        <path d="M104.015 10.3813C100.832 10.992 98.657 12.097 96.8321 14.0017C95.0219 15.9064 94.1752 17.7384 93.8832 20.3847C93.7956 21.1844 93.7227 24.703 93.7227 28.4688C93.7227 35.7532 93.7373 35.9567 94.5694 36.8437C95.9124 38.2686 98.511 38.1086 99.6351 36.5092L100.073 35.884L100.146 28.1634C100.219 21.4606 100.263 20.3265 100.482 19.7013C101.27 17.3168 103.27 16.0373 106.409 15.8774C108.175 15.7901 109.168 15.9791 110.496 16.6334C112.146 17.4331 113.11 18.669 113.431 20.3847C113.518 20.7918 113.577 24.2959 113.577 28.2361C113.577 35.9858 113.577 35.9422 114.423 36.8291C115.139 37.5852 115.839 37.8324 116.993 37.7742C118.394 37.7015 119.153 37.2362 119.65 36.1312L120.015 35.3315L119.971 27.5237C119.912 20.0212 119.898 19.6577 119.591 18.5672C118.496 14.6415 115.431 11.8208 111.022 10.6721C109.81 10.3522 109.168 10.2796 107.299 10.2359C105.81 10.2069 104.686 10.2505 104.015 10.3813Z" fill="white"/>
    </g>
    <defs>
        <clipPath id="clip0_500_42">
            <rect width="120" height="37.9487" fill="white"/>
        </clipPath>
    </defs>
</svg>
